{"title":"Tobruk (2008).SWESUB.DVDRip.XviD.AC3.(5.1).-Zen_Bud","uid":5574214,"size":1471436044,"categoryP":"video","categoryS":"movies","magnet":"?xt=urn:btih:f17f5b4fbfc782420a2890bf43179b8857763493&amp;dn=Tobruk+%282008%29.SWESUB.DVDRip.XviD.AC3.%285.1%29.-Zen_Bud&amp;tr=udp%3A%2F%2Ftracker.openbittorrent.com%3A80&amp;tr=udp%3A%2F%2Fopen.demonii.com%3A1337&amp;tr=udp%3A%2F%2Ftracker.coppersurfer.tk%3A6969&amp;tr=udp%3A%2F%2Fexodus.desync.com%3A6969","seeders":1,"leechers":1,"uploader":"Zen_Bud","files":-1,"time":1274341919,"description":"Language: Czech !\n\n\n\n\nGeneral\nComplete name                    : Tobruk(2008).avi\nFormat                           : AVI\nFile size                        : 1.37 GiB\nDuration                         : 1h 38mn\nOverall bit rate                 : 1 989 Kbps\n\nVideo\nID                               : 0\nFormat                           : MPEG-4 Visual\nCodec ID/Hint                    : XviD\nDuration                         : 1h 38mn\nBit rate                         : 1 530 Kbps\nWidth                            : 720 pixels\nHeight                           : 436 pixels\nDisplay aspect ratio             : 2.35:1\nResolution                       : 8 bits\nColorimetry                      : 4:2:0\nScan type                        : Progressive\nBits/(Pixel*Frame)               : 0.195\nStream size                      : 1.05 GiB (77%)\nWriting library                  : XviD 1.1.2 (UTC 2006-11-01)\n\nAudio\nID                               : 1\nFormat                           : AC-3\nDuration                         : 1h 38mn\nBit rate                         : 448 Kbps\nChannel(s)                       : 6 channels\nChannel positions                : Front: L C R, Side: L R, LFE\nSampling rate                    : 48.0 KHz\nStream size                      : 316 MiB (23%)\n\n\n","torrent":{"xt":"urn:btih:f17f5b4fbfc782420a2890bf43179b8857763493","amp;dn":"Tobruk+%282008%29.SWESUB.DVDRip.XviD.AC3.%285.1%29.-Zen_Bud","amp;tr":["udp%3A%2F%2Ftracker.openbittorrent.com%3A80","udp%3A%2F%2Fopen.demonii.com%3A1337","udp%3A%2F%2Ftracker.coppersurfer.tk%3A6969","udp%3A%2F%2Fexodus.desync.com%3A6969"],"infoHash":"f17f5b4fbfc782420a2890bf43179b8857763493","infoHashBuffer":{"type":"Buffer","data":[241,127,91,79,191,199,130,66,10,40,144,191,67,23,155,136,87,118,52,147]},"announce":[],"urlList":[]}}